<?xml version="1.0" encoding="UTF-8"?>
<svg width="50" height="50" fill="none" stroke="#ffffff" stroke-linecap="round" stroke-linejoin="round" stroke-width="2" version="1.1" viewBox="0 0 24 24" xmlns="http://www.w3.org/2000/svg" xmlns:cc="http://creativecommons.org/ns#" xmlns:dc="http://purl.org/dc/elements/1.1/" xmlns:rdf="http://www.w3.org/1999/02/22-rdf-syntax-ns#">
 <metadata>
  <rdf:RDF>
   <cc:Work rdf:about="">
    <dc:format>image/svg+xml</dc:format>
    <dc:type rdf:resource="http://purl.org/dc/dcmitype/StillImage"/>
    <dc:title/>
   </cc:Work>
  </rdf:RDF>
 </metadata>
 <g display="none">
  <circle cx="12" cy="12" r="12" fill="#ff7f2a" stroke="none"/>
 </g>
 <g>
  <path d="m11.999 2.9156a0.82593 0.82593 0 0 0-0.40039 0.10352l-7.4316 4.1289a0.82593 0.82593 0 0 0-0.42578 0.72266v8.3398a0.82593 0.82593 0 0 0 0.43164 0.72656l7.4316 4.0469a0.82593 0.82593 0 0 0 0.79688-0.0039l7.4316-4.1289a0.82593 0.82593 0 0 0 0.42578-0.72266v-8.3418a0.82593 0.82593 0 0 0-0.43164-0.72461l-7.4316-4.0469a0.82593 0.82593 0 0 0-0.39648-0.09961zm0.0039 1.7676 6.6035 3.5957v7.3633l-6.6113 3.6738-6.6016-3.5957v-7.3633z" color="#000000" color-rendering="auto" dominant-baseline="auto" fill="#1c2224" image-rendering="auto" shape-rendering="auto" solid-color="#000000" stroke="none" style="font-feature-settings:normal;font-variant-alternates:normal;font-variant-caps:normal;font-variant-ligatures:normal;font-variant-numeric:normal;font-variant-position:normal;isolation:auto;mix-blend-mode:normal;shape-padding:0;text-decoration-color:#000000;text-decoration-line:none;text-decoration-style:solid;text-indent:0;text-orientation:mixed;text-transform:none;white-space:normal"/>
  <path d="m11.722 3.8004c-0.90928 0.43204-1.7716 0.96327-2.66 1.4384-1.3847 0.77859-2.7885 1.5291-4.1598 2.3279-0.47634 0.28977-0.44251 0.89448-0.42698 1.3802 0.0046 2.272-0.00919 4.5456 0.00689 6.8167 0.00733 0.52212 0.47471 0.83256 0.90274 1.0244 2.0693 1.119 4.1196 2.2744 6.2095 3.3545 0.49058 0.22484 0.9744-0.0761 1.3935-0.3125 2.0417-1.1123 4.0749-2.2432 6.0996-3.3843 0.44908-0.25823 0.4949-0.8119 0.46136-1.2764 0.0022-2.3031 0.02284-4.6077 0.01356-6.91-0.005865-0.52373-0.47448-0.83579-0.90412-1.0272-2.1079-1.1351-4.1954-2.3106-6.3207-3.4119-0.20959-0.061164-0.402-0.067088-0.61552-0.019805z" fill="#6bbed5" stroke="none"/>
  <g fill="#fff" stroke="#000" stroke-width=".41545" aria-label="?">
   <path d="m11.953 7.1281q1.3938 0 2.325 0.53125 1.15 0.6625 1.15 1.8938 0 0.79375-0.50625 1.3438-0.3125 0.35-0.975 0.75-0.75625 0.4625-1.1062 0.8875-0.29375 0.35-0.3 0.84375-0.0062 0.275-0.2375 0.44375-0.2125 0.14375-0.51875 0.14375-0.35 0-0.56875-0.20625-0.2125-0.19375-0.2125-0.55 0-0.65 0.31875-1.1375 0.39375-0.5875 1.2938-1.2312 0.81875-0.5875 0.81875-1.2188 0-0.4875-0.44375-0.78125-0.425-0.28125-1.075-0.28125-1.025 0-1.7562 1.0125-0.2875 0.4-0.75 0.4-0.29375 0-0.53125-0.16875-0.30625-0.2125-0.30625-0.6 0-0.58125 0.675-1.175 1.025-0.9 2.7063-0.9zm-0.21875 7.5188q0.29375 0 0.56875 0.1625 0.5375 0.325 0.5375 0.95 0 0.425-0.28125 0.74375-0.33125 0.36875-0.8375 0.36875-0.275 0-0.5125-0.13125-0.59375-0.3125-0.59375-0.9875 0-0.4875 0.35-0.80625 0.325-0.3 0.76875-0.3z" fill="#fff" stroke="#000" stroke-width=".41545"/>
  </g>
 </g>
</svg>
