<?xml version="1.0" encoding="UTF-8"?>
<svg width="50" height="50" fill="none" stroke="#ffffff" stroke-linecap="round" stroke-linejoin="round" stroke-width="2" version="1.1" viewBox="0 0 24 24" xmlns="http://www.w3.org/2000/svg" xmlns:cc="http://creativecommons.org/ns#" xmlns:dc="http://purl.org/dc/elements/1.1/" xmlns:osb="http://www.openswatchbook.org/uri/2009/osb" xmlns:rdf="http://www.w3.org/1999/02/22-rdf-syntax-ns#" xmlns:xlink="http://www.w3.org/1999/xlink">
 <metadata>
  <rdf:RDF>
   <cc:Work rdf:about="">
    <dc:format>image/svg+xml</dc:format>
    <dc:type rdf:resource="http://purl.org/dc/dcmitype/StillImage"/>
    <dc:title/>
   </cc:Work>
  </rdf:RDF>
 </metadata>
 <g stroke="none">
  <circle cx="12" cy="12" r="12" fill="#d699ca"/>
  <path d="m11.999 2.9156a0.82593 0.82593 0 0 0-0.40039 0.10352l-7.4316 4.1289a0.82593 0.82593 0 0 0-0.42578 0.72266v8.3398a0.82593 0.82593 0 0 0 0.43164 0.72656l7.4316 4.0469a0.82593 0.82593 0 0 0 0.79688-0.0039l7.4316-4.1289a0.82593 0.82593 0 0 0 0.42578-0.72266v-8.3418a0.82593 0.82593 0 0 0-0.43164-0.72461l-7.4316-4.0469a0.82593 0.82593 0 0 0-0.39648-0.09961zm0.0039 1.7676 6.6035 3.5957v7.3633l-6.6113 3.6738-6.6016-3.5957v-7.3633z" color="#000000" color-rendering="auto" dominant-baseline="auto" fill="#1c2224" image-rendering="auto" shape-rendering="auto" solid-color="#000000" style="font-feature-settings:normal;font-variant-alternates:normal;font-variant-caps:normal;font-variant-ligatures:normal;font-variant-numeric:normal;font-variant-position:normal;isolation:auto;mix-blend-mode:normal;shape-padding:0;text-decoration-color:#000000;text-decoration-line:none;text-decoration-style:solid;text-indent:0;text-orientation:mixed;text-transform:none;white-space:normal"/>
  <path d="m11.722 3.8004c-0.90928 0.43204-1.7716 0.96327-2.66 1.4384-1.3847 0.77859-2.7885 1.5291-4.1598 2.3279-0.47634 0.28977-0.44251 0.89448-0.42698 1.3802 0.0046 2.272-0.00919 4.5456 0.00689 6.8167 0.00733 0.52212 0.47471 0.83256 0.90274 1.0244 2.0693 1.119 4.1196 2.2744 6.2095 3.3545 0.49058 0.22484 0.9744-0.0761 1.3935-0.3125 2.0417-1.1123 4.0749-2.2432 6.0996-3.3843 0.44908-0.25823 0.4949-0.8119 0.46136-1.2764 0.0022-2.3031 0.02284-4.6077 0.01356-6.91-0.005865-0.52373-0.47448-0.83579-0.90412-1.0272-2.1079-1.1351-4.1954-2.3106-6.3207-3.4119-0.20959-0.061164-0.402-0.067088-0.61552-0.019805z" fill="#25ba59"/>
 </g>
 <g display="none">
  <text x="6.3518748" y="16.793751" display="inline" fill="#ffffff" font-family="'UD Digi Kyokasho NP-B'" font-size="19.2px" letter-spacing="-.96px" stroke="#1c2224" stroke-linecap="round" stroke-linejoin="round" stroke-width=".336" word-spacing="-48px" style="line-height:0;paint-order:normal" xml:space="preserve"><tspan x="6.3518748" y="16.793751" fill="#ffffff" font-family="'UD Digi Kyokasho NP-B'" font-size="12.8px" letter-spacing="-.96px" stroke="#1c2224" stroke-linecap="round" stroke-linejoin="round" stroke-width=".336" word-spacing="0px" style="line-height:0;paint-order:normal">It</tspan></text>
 </g>
 <path transform="scale(.48)" d="m22.186 14.143v0.90625 0.90625h-0.89844-0.89844v1.8047 1.8047h0.89844 0.89844v1.8125 1.8125h0.90625 0.90625v-1.8125-1.8125h0.90625 0.90625v1.8125 1.8125h0.90625 0.90625v-1.8125-1.8125h0.89844 0.89844v-1.8047-1.8047h-0.89844-0.89844v-0.90625-0.90625h-2.7188-2.7188zm-1.8164 9.0371v0.90625 0.90625h0.90625 0.90625v-0.90625-0.90625h-0.90625-0.90625zm1.8125 1.8125v0.90625 0.90625h0.90625 0.90625v-0.90625-0.90625h-0.90625-0.90625zm0 1.8125h-0.90625-0.90625v1.8105 1.8125h0.90625 0.90625v-1.8125-1.8105zm-1.8125 0v-0.90625-0.90625h-0.89453-0.89453v0.90625 0.90625h0.89453 0.89453zm-1.7891 0h-0.90625-0.90625v3.623 3.625h0.90625 0.90625v-3.625-3.623zm0 7.248v0.9043 0.90625h0.89453 0.89453v-0.90625-0.9043h-0.89453-0.89453zm1.7891 1.8105v0.90625 0.90625h4.5312 4.5293v-0.90625-0.90625h-0.90625-0.90625v-0.90625-0.9043h-0.90625-0.90625v0.9043 0.90625h-2.7168-2.7188zm7.248-1.8105h0.90625 0.90625v-1.8125-1.8125h-0.90625-0.90625v1.8125 1.8125zm1.8125 0v0.9043 0.90625h0.90625 0.90625v-0.90625-0.9043h-0.90625-0.90625zm1.8125 0h0.9043 0.90625v-3.625-3.623h-0.90625-0.9043v3.623 3.625zm0-7.248v-0.90625-0.90625h-0.90625-0.90625v0.90625 0.90625h0.90625 0.90625zm-1.8125-1.8125v-0.90625-0.90625l-1.8008 0.011718-0.011718 1.8008h0.90625 0.90625z" fill="#fff" stroke="none"/>
</svg>
