<?xml version="1.0" encoding="UTF-8"?>
<svg width="50" height="50" fill="none" stroke="#ffffff" stroke-linecap="round" stroke-linejoin="round" stroke-width="2" version="1.1" viewBox="0 0 24 24" xmlns="http://www.w3.org/2000/svg" xmlns:cc="http://creativecommons.org/ns#" xmlns:dc="http://purl.org/dc/elements/1.1/" xmlns:osb="http://www.openswatchbook.org/uri/2009/osb" xmlns:rdf="http://www.w3.org/1999/02/22-rdf-syntax-ns#" xmlns:xlink="http://www.w3.org/1999/xlink">
 <metadata>
  <rdf:RDF>
   <cc:Work rdf:about="">
    <dc:format>image/svg+xml</dc:format>
    <dc:type rdf:resource="http://purl.org/dc/dcmitype/StillImage"/>
    <dc:title/>
   </cc:Work>
  </rdf:RDF>
 </metadata>
 <circle cx="12" cy="12" r="12" fill="#3694dc" stroke="none"/>
 <g stroke="none">
  <path d="m11.999 2.9156a0.82593 0.82593 0 0 0-0.40039 0.10352l-7.4316 4.1289a0.82593 0.82593 0 0 0-0.42578 0.72266v8.3398a0.82593 0.82593 0 0 0 0.43164 0.72656l7.4316 4.0469a0.82593 0.82593 0 0 0 0.79688-0.0039l7.4316-4.1289a0.82593 0.82593 0 0 0 0.42578-0.72266v-8.3418a0.82593 0.82593 0 0 0-0.43164-0.72461l-7.4316-4.0469a0.82593 0.82593 0 0 0-0.39648-0.09961zm0.0039 1.7676 6.6035 3.5957v7.3633l-6.6113 3.6738-6.6016-3.5957v-7.3633z" color="#000000" color-rendering="auto" dominant-baseline="auto" fill="#1c2224" image-rendering="auto" shape-rendering="auto" solid-color="#000000" style="font-feature-settings:normal;font-variant-alternates:normal;font-variant-caps:normal;font-variant-ligatures:normal;font-variant-numeric:normal;font-variant-position:normal;isolation:auto;mix-blend-mode:normal;shape-padding:0;text-decoration-color:#000000;text-decoration-line:none;text-decoration-style:solid;text-indent:0;text-orientation:mixed;text-transform:none;white-space:normal"/>
  <path d="m11.722 3.8004c-0.90928 0.43204-1.7716 0.96327-2.66 1.4384-1.3847 0.77859-2.7885 1.5291-4.1598 2.3279-0.47634 0.28977-0.44251 0.89448-0.42698 1.3802 0.0046 2.272-0.00919 4.5456 0.00689 6.8167 0.00733 0.52212 0.47471 0.83256 0.90274 1.0244 2.0693 1.119 4.1196 2.2744 6.2095 3.3545 0.49058 0.22484 0.9744-0.0761 1.3935-0.3125 2.0417-1.1123 4.0749-2.2432 6.0996-3.3843 0.44908-0.25823 0.4949-0.8119 0.46136-1.2764 0.0022-2.3031 0.02284-4.6077 0.01356-6.91-0.005865-0.52373-0.47448-0.83579-0.90412-1.0272-2.1079-1.1351-4.1954-2.3106-6.3207-3.4119-0.20959-0.061164-0.402-0.067088-0.61552-0.019805z" fill="#25ba59"/>
 </g>
 <g display="none">
  <rect x="13.311" y="1.8852" width="13.937" height="13.937" ry="3.6062" display="inline" fill="#4a0" stroke="none"/>
 </g>
 <g>
  <g fill="#fff" stroke="#1c2224" stroke-linecap="round" stroke-linejoin="round" stroke-width=".336" style="paint-order:normal" aria-label="Bl">
   <path d="m12.171 11.775q2.2938 0.38125 2.2938 2.2938 0 1.4188-1.3625 2.125-0.9125 0.475-2.325 0.475h-2.6375q-1.3 0-1.3-1.3v-6.75q0-1.2938 1.3-1.2938h2.3562q1.4 0 2.2562 0.4125 1.3062 0.61875 1.3062 1.9375 0 1.7125-1.8875 2.1zm-3.6062-0.6625h1.8812q0.6625 0 1.1375-0.24375 0.68125-0.35 0.68125-1.0187 0-0.68125-0.65625-0.98125-0.4375-0.2-1.125-0.2h-1.65q-0.26875 0-0.26875 0.25625zm0 1.3688v2.425q0 0.31875 0.33125 0.31875h1.7062q0.8875 0 1.3625-0.2375 0.60625-0.3125 0.60625-1.0875 0-0.81875-0.79375-1.1812-0.5125-0.2375-1.3062-0.2375z" style="paint-order:normal"/>
   <path d="m17.161 7.875v8.2312q0 0.25625-0.15625 0.43125-0.2375 0.275-0.66875 0.275-0.4875 0-0.7125-0.34375-0.1-0.15625-0.1-0.3625v-8.2312q0-0.36875 0.325-0.55625 0.225-0.13125 0.4875-0.13125 0.325 0 0.56875 0.175 0.25625 0.1875 0.25625 0.5125z" style="paint-order:normal"/>
  </g>
 </g>
</svg>
